<svg width="1920" height="916" viewBox="0 0 1920 916" fill="none" xmlns="http://www.w3.org/2000/svg">
<ellipse cx="1530.71" cy="480.219" rx="7.98563" ry="8.04205" transform="rotate(7.89376 1530.71 480.219)" fill="#8BD8FF"/>
<path d="M1499.07 504.924L1497.78 514.218L1563.7 523.357L1564.99 514.064L1499.07 504.924Z" fill="#4C4C4C"/>
<rect width="18.1514" height="110.635" transform="matrix(0.655328 -0.755344 0.751098 0.66019 1470.72 641.523)" fill="#660A6B"/>
<rect width="18.1514" height="115.695" transform="matrix(-0.4251 -0.905146 -0.902383 0.430935 1555.99 651.993)" fill="#660A6B"/>
<path d="M1548.5 511.002L1513.5 506.002L1515.5 493.002L1521.5 484.502L1535.5 480.002L1547 488.002L1550.5 498.002L1548.5 511.002Z" fill="#4493FA" stroke="#4493FA"/>
<path d="M1515.5 489.502C1513.71 499.354 1515.22 502.705 1521 506.002C1517.67 500.605 1516.54 496.98 1515.5 489.502Z" fill="white" stroke="white"/>
<g filter="url(#filter0_f_809_969)">
<path d="M1554.5 512.502L1510 506.502L1509.5 506.002L1512.54 483.57C1513.17 478.956 1515.11 474.621 1518.15 471.086C1521 467.759 1524.7 465.27 1528.86 463.884L1530.15 463.453C1534.85 461.886 1539.99 462.284 1544.39 464.557L1545.83 465.297C1550.47 467.695 1554.16 471.605 1556.28 476.383C1558.06 480.379 1558.66 484.799 1558.01 489.123L1554.5 512.502Z" fill="white"/>
<path d="M1554.5 512.502L1510 506.502L1509.5 506.002L1512.54 483.57C1513.17 478.956 1515.11 474.621 1518.15 471.086C1521 467.759 1524.7 465.27 1528.86 463.884L1530.15 463.453C1534.85 461.886 1539.99 462.284 1544.39 464.557L1545.83 465.297C1550.47 467.695 1554.16 471.605 1556.28 476.383C1558.06 480.379 1558.66 484.799 1558.01 489.123L1554.5 512.502Z" stroke="white" stroke-width="2"/>
</g>
<path d="M1554.5 512.502L1510 506.502L1509.5 506.002L1512.54 483.57C1513.17 478.956 1515.11 474.621 1518.15 471.086C1521 467.759 1524.7 465.27 1528.86 463.884L1530.15 463.453C1534.85 461.886 1539.99 462.284 1544.39 464.557L1545.83 465.297C1550.47 467.695 1554.16 471.605 1556.28 476.383C1558.06 480.379 1558.66 484.799 1558.01 489.123L1554.5 512.502Z" fill="url(#paint0_radial_809_969)"/>
<path d="M1542 467.001C1550.93 470.721 1553.08 474.727 1553 484.501C1550.88 475.628 1548.55 471.72 1542 467.001Z" fill="white" stroke="white"/>
<path d="M1553 488.502L1551.5 500.502" stroke="white"/>
<ellipse cx="1530.71" cy="480.219" rx="7.98563" ry="8.04205" transform="rotate(7.89376 1530.71 480.219)" fill="#8BD8FF"/>
<rect width="18.1514" height="110.635" transform="matrix(0.655328 -0.755344 0.751098 0.66019 1470.72 641.523)" fill="url(#paint1_linear_809_969)"/>
<rect width="18.1514" height="115.695" transform="matrix(-0.4251 -0.905146 -0.902383 0.430935 1555.99 651.993)" fill="url(#paint2_linear_809_969)"/>
<g filter="url(#filter1_f_809_969)">
<path d="M1619.5 754.002L1375 720.002C1359 770.802 1406.67 788.502 1432.5 791.002C1440.84 792.168 1474 796.902 1540 806.502C1606 816.102 1620.5 775.502 1619.5 754.002Z" fill="white"/>
<path d="M1619.5 754.002L1375 720.002C1359 770.802 1406.67 788.502 1432.5 791.002C1440.84 792.168 1474 796.902 1540 806.502C1606 816.102 1620.5 775.502 1619.5 754.002Z" stroke="white" stroke-width="2"/>
</g>
<g filter="url(#filter2_f_809_969)">
<path d="M1680.95 759.847L1413.51 715C1396.01 782.006 1448.15 805.353 1476.41 808.65C1485.52 810.189 1521.8 816.432 1593.99 829.095C1666.18 841.757 1682.04 788.205 1680.95 759.847Z" fill="#253991"/>
</g>
<path d="M1619.5 754.002L1375 720.002C1359 770.802 1406.67 788.502 1432.5 791.002C1440.84 792.168 1474 796.902 1540 806.502C1606 816.102 1620.5 775.502 1619.5 754.002Z" fill="url(#paint3_radial_809_969)"/>
<g filter="url(#filter3_f_809_969)">
<path d="M1584.11 512.644L-579.898 513.621L-559.275 214.6L1584.11 512.644Z" fill="url(#paint4_linear_809_969)" fill-opacity="0.58"/>
</g>
<g filter="url(#filter4_f_809_969)">
<path d="M1641.67 527.456L-446.925 -66.7836L-270.82 -501.004L1641.67 527.456Z" fill="url(#paint5_linear_809_969)" fill-opacity="0.46"/>
</g>
<g filter="url(#filter5_f_809_969)">
<path d="M1584.11 512.644L-579.899 513.621L-559.277 214.6L1584.11 512.644Z" fill="url(#paint6_linear_809_969)" fill-opacity="0.58"/>
</g>
<g filter="url(#filter6_f_809_969)">
<path d="M1653.67 530.455L-434.927 -63.7848L-258.823 -498.005L1653.67 530.455Z" fill="#F8FDFF" fill-opacity="0.46"/>
</g>
<path d="M1421.27 726.882L1497.38 536.49L1478.26 533.84L1481.39 511.27L1580.27 524.979L1577.14 547.549L1557.36 544.807L1579.46 748.816L1555.73 745.526L1535.59 566.145L1511.57 739.402L1487.84 736.112L1511.86 562.855L1445.65 730.263L1421.27 726.882Z" fill="url(#paint7_linear_809_969)"/>
<path d="M1557.5 545.002L1497.5 536.502L1559 559.502L1557.5 545.002Z" fill="#62006B"/>
<defs>
<filter id="filter0_f_809_969" x="1478.45" y="431.51" width="110.818" height="112.115" filterUnits="userSpaceOnUse" color-interpolation-filters="sRGB">
<feFlood flood-opacity="0" result="BackgroundImageFix"/>
<feBlend mode="normal" in="SourceGraphic" in2="BackgroundImageFix" result="shape"/>
<feGaussianBlur stdDeviation="15" result="effect1_foregroundBlur_809_969"/>
</filter>
<filter id="filter1_f_809_969" x="1340.79" y="688.895" width="309.758" height="150.051" filterUnits="userSpaceOnUse" color-interpolation-filters="sRGB">
<feFlood flood-opacity="0" result="BackgroundImageFix"/>
<feBlend mode="normal" in="SourceGraphic" in2="BackgroundImageFix" result="shape"/>
<feGaussianBlur stdDeviation="15" result="effect1_foregroundBlur_809_969"/>
</filter>
<filter id="filter2_f_809_969" x="1370" y="675" width="351" height="196" filterUnits="userSpaceOnUse" color-interpolation-filters="sRGB">
<feFlood flood-opacity="0" result="BackgroundImageFix"/>
<feBlend mode="normal" in="SourceGraphic" in2="BackgroundImageFix" result="shape"/>
<feGaussianBlur stdDeviation="20" result="effect1_foregroundBlur_809_969"/>
</filter>
<filter id="filter3_f_809_969" x="-679.898" y="114.6" width="2364.01" height="499.021" filterUnits="userSpaceOnUse" color-interpolation-filters="sRGB">
<feFlood flood-opacity="0" result="BackgroundImageFix"/>
<feBlend mode="normal" in="SourceGraphic" in2="BackgroundImageFix" result="shape"/>
<feGaussianBlur stdDeviation="50" result="effect1_foregroundBlur_809_969"/>
</filter>
<filter id="filter4_f_809_969" x="-546.924" y="-601.004" width="2288.6" height="1228.46" filterUnits="userSpaceOnUse" color-interpolation-filters="sRGB">
<feFlood flood-opacity="0" result="BackgroundImageFix"/>
<feBlend mode="normal" in="SourceGraphic" in2="BackgroundImageFix" result="shape"/>
<feGaussianBlur stdDeviation="50" result="effect1_foregroundBlur_809_969"/>
</filter>
<filter id="filter5_f_809_969" x="-679.899" y="114.6" width="2364.01" height="499.021" filterUnits="userSpaceOnUse" color-interpolation-filters="sRGB">
<feFlood flood-opacity="0" result="BackgroundImageFix"/>
<feBlend mode="normal" in="SourceGraphic" in2="BackgroundImageFix" result="shape"/>
<feGaussianBlur stdDeviation="50" result="effect1_foregroundBlur_809_969"/>
</filter>
<filter id="filter6_f_809_969" x="-534.927" y="-598.005" width="2288.6" height="1228.46" filterUnits="userSpaceOnUse" color-interpolation-filters="sRGB">
<feFlood flood-opacity="0" result="BackgroundImageFix"/>
<feBlend mode="normal" in="SourceGraphic" in2="BackgroundImageFix" result="shape"/>
<feGaussianBlur stdDeviation="50" result="effect1_foregroundBlur_809_969"/>
</filter>
<radialGradient id="paint0_radial_809_969" cx="0" cy="0" r="1" gradientUnits="userSpaceOnUse" gradientTransform="translate(1530 475.502) rotate(83.4474) scale(37.2433 35.7969)">
<stop stop-color="#C3D7EF"/>
<stop offset="1" stop-color="#085EC3"/>
</radialGradient>
<linearGradient id="paint1_linear_809_969" x1="5.1114" y1="50.4989" x2="31.6964" y2="-10.4373" gradientUnits="userSpaceOnUse">
<stop stop-color="#660A6B"/>
<stop offset="1" stop-color="#C613D1"/>
</linearGradient>
<linearGradient id="paint2_linear_809_969" x1="-6.18428" y1="56.6469" x2="36.4389" y2="49.8804" gradientUnits="userSpaceOnUse">
<stop stop-color="#660A6B"/>
<stop offset="1" stop-color="#C613D1"/>
</linearGradient>
<radialGradient id="paint3_radial_809_969" cx="0" cy="0" r="1" gradientUnits="userSpaceOnUse" gradientTransform="translate(1470 715.002) rotate(74.5621) scale(96.4234 271.646)">
<stop offset="0.441667" stop-color="#692B65"/>
<stop offset="0.695" stop-color="#2A2A2A"/>
<stop offset="1"/>
</radialGradient>
<linearGradient id="paint4_linear_809_969" x1="1602" y1="532.411" x2="1354.39" y2="1076.38" gradientUnits="userSpaceOnUse">
<stop stop-color="#B032B4"/>
<stop offset="0.915" stop-color="#0D0E3D"/>
</linearGradient>
<linearGradient id="paint5_linear_809_969" x1="1648.61" y1="561.459" x2="911.425" y2="1215.54" gradientUnits="userSpaceOnUse">
<stop stop-color="#30B4F6"/>
<stop offset="0.555" stop-color="#0D0E3D"/>
</linearGradient>
<linearGradient id="paint6_linear_809_969" x1="1601.99" y1="532.411" x2="1354.39" y2="1076.38" gradientUnits="userSpaceOnUse">
<stop stop-color="#B032B4"/>
<stop offset="0.915" stop-color="#0D0E3D"/>
</linearGradient>
<linearGradient id="paint7_linear_809_969" x1="1498" y1="507.002" x2="1500.36" y2="737.849" gradientUnits="userSpaceOnUse">
<stop offset="0.035" stop-color="#D75DDB"/>
<stop offset="0.155" stop-color="#B02FB4"/>
<stop offset="0.64" stop-color="#4C144E"/>
</linearGradient>
</defs>
</svg>
