<svg width="3299" height="1751" viewBox="0 0 3299 1751" fill="none" xmlns="http://www.w3.org/2000/svg">
<ellipse cx="2853.71" cy="1315.22" rx="7.98563" ry="8.04205" transform="rotate(7.89376 2853.71 1315.22)" fill="#8BD8FF"/>
<path d="M2822.07 1339.92L2820.78 1349.22L2886.7 1358.36L2887.99 1349.06L2822.07 1339.92Z" fill="#4C4C4C"/>
<rect width="18.1514" height="110.635" transform="matrix(0.655328 -0.755344 0.751098 0.66019 2793.72 1476.52)" fill="#660A6B"/>
<rect width="18.1514" height="115.695" transform="matrix(-0.4251 -0.905146 -0.902383 0.430935 2878.99 1486.99)" fill="#660A6B"/>
<path d="M2871.5 1346L2836.5 1341L2838.5 1328L2844.5 1319.5L2858.5 1315L2870 1323L2873.5 1333L2871.5 1346Z" fill="#4493FA" stroke="#4493FA"/>
<path d="M2838.5 1324.5C2836.71 1334.35 2838.22 1337.71 2844 1341C2840.67 1335.61 2839.54 1331.98 2838.5 1324.5Z" fill="white" stroke="white"/>
<g filter="url(#filter0_f_809_969)">
<path d="M2877.5 1347.5L2833 1341.5L2832.5 1341L2835.54 1318.57C2836.17 1313.96 2838.11 1309.62 2841.15 1306.09C2844 1302.76 2847.7 1300.27 2851.86 1298.88L2853.15 1298.45C2857.85 1296.89 2862.99 1297.28 2867.39 1299.56L2868.83 1300.3C2873.47 1302.69 2877.16 1306.61 2879.28 1311.38C2881.06 1315.38 2881.66 1319.8 2881.01 1324.12L2877.5 1347.5Z" fill="white"/>
<path d="M2877.5 1347.5L2833 1341.5L2832.5 1341L2835.54 1318.57C2836.17 1313.96 2838.11 1309.62 2841.15 1306.09C2844 1302.76 2847.7 1300.27 2851.86 1298.88L2853.15 1298.45C2857.85 1296.89 2862.99 1297.28 2867.39 1299.56L2868.83 1300.3C2873.47 1302.69 2877.16 1306.61 2879.28 1311.38C2881.06 1315.38 2881.66 1319.8 2881.01 1324.12L2877.5 1347.5Z" stroke="white" stroke-width="2"/>
</g>
<path d="M2877.5 1347.5L2833 1341.5L2832.5 1341L2835.54 1318.57C2836.17 1313.96 2838.11 1309.62 2841.15 1306.09C2844 1302.76 2847.7 1300.27 2851.86 1298.88L2853.15 1298.45C2857.85 1296.89 2862.99 1297.28 2867.39 1299.56L2868.83 1300.3C2873.47 1302.69 2877.16 1306.61 2879.28 1311.38C2881.06 1315.38 2881.66 1319.8 2881.01 1324.12L2877.5 1347.5Z" fill="url(#paint0_radial_809_969)"/>
<path d="M2865 1302C2873.93 1305.72 2876.08 1309.73 2876 1319.5C2873.88 1310.63 2871.55 1306.72 2865 1302Z" fill="white" stroke="white"/>
<path d="M2876 1323.5L2874.5 1335.5" stroke="white"/>
<ellipse cx="2853.71" cy="1315.22" rx="7.98563" ry="8.04205" transform="rotate(7.89376 2853.71 1315.22)" fill="#8BD8FF"/>
<rect width="18.1514" height="110.635" transform="matrix(0.655328 -0.755344 0.751098 0.66019 2793.72 1476.52)" fill="url(#paint1_linear_809_969)"/>
<rect width="18.1514" height="115.695" transform="matrix(-0.4251 -0.905146 -0.902383 0.430935 2878.99 1486.99)" fill="url(#paint2_linear_809_969)"/>
<g filter="url(#filter1_f_809_969)">
<path d="M2942.5 1589L2698 1555C2682 1605.8 2729.67 1623.5 2755.5 1626C2763.84 1627.17 2797 1631.9 2863 1641.5C2929 1651.1 2943.5 1610.5 2942.5 1589Z" fill="white"/>
<path d="M2942.5 1589L2698 1555C2682 1605.8 2729.67 1623.5 2755.5 1626C2763.84 1627.17 2797 1631.9 2863 1641.5C2929 1651.1 2943.5 1610.5 2942.5 1589Z" stroke="white" stroke-width="2"/>
</g>
<g filter="url(#filter2_f_809_969)">
<path d="M3003.95 1594.85L2736.51 1550C2719.01 1617.01 2771.15 1640.35 2799.41 1643.65C2808.52 1645.19 2844.8 1651.43 2916.99 1664.09C2989.18 1676.76 3005.04 1623.21 3003.95 1594.85Z" fill="#253991"/>
</g>
<path d="M2942.5 1589L2698 1555C2682 1605.8 2729.67 1623.5 2755.5 1626C2763.84 1627.17 2797 1631.9 2863 1641.5C2929 1651.1 2943.5 1610.5 2942.5 1589Z" fill="url(#paint3_radial_809_969)"/>
<g filter="url(#filter3_f_809_969)">
<path d="M2907.11 1347.64L743.102 1348.62L763.725 1049.6L2907.11 1347.64Z" fill="url(#paint4_linear_809_969)" fill-opacity="0.58"/>
</g>
<g filter="url(#filter4_f_809_969)">
<path d="M2964.67 1362.46L876.075 768.216L1052.18 333.996L2964.67 1362.46Z" fill="url(#paint5_linear_809_969)" fill-opacity="0.46"/>
</g>
<g filter="url(#filter5_f_809_969)">
<path d="M2907.11 1347.64L743.101 1348.62L763.723 1049.6L2907.11 1347.64Z" fill="url(#paint6_linear_809_969)" fill-opacity="0.58"/>
</g>
<g filter="url(#filter6_f_809_969)">
<path d="M2976.67 1365.46L888.073 771.215L1064.18 336.995L2976.67 1365.46Z" fill="#F8FDFF" fill-opacity="0.46"/>
</g>
<path d="M2744.27 1561.88L2820.38 1371.49L2801.26 1368.84L2804.39 1346.27L2903.27 1359.98L2900.14 1382.55L2880.36 1379.81L2902.46 1583.82L2878.73 1580.53L2858.59 1401.15L2834.57 1574.4L2810.84 1571.11L2834.86 1397.86L2768.65 1565.26L2744.27 1561.88Z" fill="url(#paint7_linear_809_969)"/>
<path d="M2880.5 1380L2820.5 1371.5L2882 1394.5L2880.5 1380Z" fill="#62006B"/>
<defs>
<filter id="filter0_f_809_969" x="2801.45" y="1266.51" width="110.818" height="112.115" filterUnits="userSpaceOnUse" color-interpolation-filters="sRGB">
<feFlood flood-opacity="0" result="BackgroundImageFix"/>
<feBlend mode="normal" in="SourceGraphic" in2="BackgroundImageFix" result="shape"/>
<feGaussianBlur stdDeviation="15" result="effect1_foregroundBlur_809_969"/>
</filter>
<filter id="filter1_f_809_969" x="2663.79" y="1523.89" width="309.758" height="150.051" filterUnits="userSpaceOnUse" color-interpolation-filters="sRGB">
<feFlood flood-opacity="0" result="BackgroundImageFix"/>
<feBlend mode="normal" in="SourceGraphic" in2="BackgroundImageFix" result="shape"/>
<feGaussianBlur stdDeviation="15" result="effect1_foregroundBlur_809_969"/>
</filter>
<filter id="filter2_f_809_969" x="2693" y="1510" width="351" height="196" filterUnits="userSpaceOnUse" color-interpolation-filters="sRGB">
<feFlood flood-opacity="0" result="BackgroundImageFix"/>
<feBlend mode="normal" in="SourceGraphic" in2="BackgroundImageFix" result="shape"/>
<feGaussianBlur stdDeviation="20" result="effect1_foregroundBlur_809_969"/>
</filter>
<filter id="filter3_f_809_969" x="643.102" y="949.6" width="2364.01" height="499.021" filterUnits="userSpaceOnUse" color-interpolation-filters="sRGB">
<feFlood flood-opacity="0" result="BackgroundImageFix"/>
<feBlend mode="normal" in="SourceGraphic" in2="BackgroundImageFix" result="shape"/>
<feGaussianBlur stdDeviation="50" result="effect1_foregroundBlur_809_969"/>
</filter>
<filter id="filter4_f_809_969" x="776.076" y="233.996" width="2288.6" height="1228.46" filterUnits="userSpaceOnUse" color-interpolation-filters="sRGB">
<feFlood flood-opacity="0" result="BackgroundImageFix"/>
<feBlend mode="normal" in="SourceGraphic" in2="BackgroundImageFix" result="shape"/>
<feGaussianBlur stdDeviation="50" result="effect1_foregroundBlur_809_969"/>
</filter>
<filter id="filter5_f_809_969" x="643.101" y="949.6" width="2364.01" height="499.021" filterUnits="userSpaceOnUse" color-interpolation-filters="sRGB">
<feFlood flood-opacity="0" result="BackgroundImageFix"/>
<feBlend mode="normal" in="SourceGraphic" in2="BackgroundImageFix" result="shape"/>
<feGaussianBlur stdDeviation="50" result="effect1_foregroundBlur_809_969"/>
</filter>
<filter id="filter6_f_809_969" x="788.073" y="236.995" width="2288.6" height="1228.46" filterUnits="userSpaceOnUse" color-interpolation-filters="sRGB">
<feFlood flood-opacity="0" result="BackgroundImageFix"/>
<feBlend mode="normal" in="SourceGraphic" in2="BackgroundImageFix" result="shape"/>
<feGaussianBlur stdDeviation="50" result="effect1_foregroundBlur_809_969"/>
</filter>
<radialGradient id="paint0_radial_809_969" cx="0" cy="0" r="1" gradientUnits="userSpaceOnUse" gradientTransform="translate(2853 1310.5) rotate(83.4474) scale(37.2433 35.7969)">
<stop stop-color="#C3D7EF"/>
<stop offset="1" stop-color="#085EC3"/>
</radialGradient>
<linearGradient id="paint1_linear_809_969" x1="5.1114" y1="50.4989" x2="31.6964" y2="-10.4373" gradientUnits="userSpaceOnUse">
<stop stop-color="#660A6B"/>
<stop offset="1" stop-color="#C613D1"/>
</linearGradient>
<linearGradient id="paint2_linear_809_969" x1="-6.18428" y1="56.6469" x2="36.4389" y2="49.8804" gradientUnits="userSpaceOnUse">
<stop stop-color="#660A6B"/>
<stop offset="1" stop-color="#C613D1"/>
</linearGradient>
<radialGradient id="paint3_radial_809_969" cx="0" cy="0" r="1" gradientUnits="userSpaceOnUse" gradientTransform="translate(2793 1550) rotate(74.5621) scale(96.4234 271.646)">
<stop offset="0.441667" stop-color="#692B65"/>
<stop offset="0.695" stop-color="#2A2A2A"/>
<stop offset="1"/>
</radialGradient>
<linearGradient id="paint4_linear_809_969" x1="2925" y1="1367.41" x2="2677.39" y2="1911.38" gradientUnits="userSpaceOnUse">
<stop stop-color="#B032B4"/>
<stop offset="0.915" stop-color="#0D0E3D"/>
</linearGradient>
<linearGradient id="paint5_linear_809_969" x1="2971.61" y1="1396.46" x2="2234.42" y2="2050.54" gradientUnits="userSpaceOnUse">
<stop stop-color="#30B4F6"/>
<stop offset="0.555" stop-color="#0D0E3D"/>
</linearGradient>
<linearGradient id="paint6_linear_809_969" x1="2924.99" y1="1367.41" x2="2677.39" y2="1911.38" gradientUnits="userSpaceOnUse">
<stop stop-color="#B032B4"/>
<stop offset="0.915" stop-color="#0D0E3D"/>
</linearGradient>
<linearGradient id="paint7_linear_809_969" x1="2821" y1="1342" x2="2823.36" y2="1572.85" gradientUnits="userSpaceOnUse">
<stop offset="0.035" stop-color="#D75DDB"/>
<stop offset="0.155" stop-color="#B02FB4"/>
<stop offset="0.64" stop-color="#4C144E"/>
</linearGradient>
</defs>
</svg>
