<svg width="379" height="170" viewBox="0 0 379 170" fill="none" xmlns="http://www.w3.org/2000/svg">
<rect width="379" height="169.577" fill="white" fill-opacity="0.25"/>
<g clip-path="url(#clip0_660_1765)">
<mask id="mask0_660_1765" style="mask-type:alpha" maskUnits="userSpaceOnUse" x="36" y="34" width="282" height="102">
<path d="M36.2612 34.1768H317.36V135.653H36.2612V34.1768Z" fill="#1B2740"/>
</mask>
<g mask="url(#mask0_660_1765)">
<path fill-rule="evenodd" clip-rule="evenodd" d="M290.644 34.1768H265.161L291.875 135.459H317.36L290.644 34.1768ZM219.912 34.1768L246.626 135.459H272.111L245.395 34.1768H219.912ZM177.663 80.9491H161.138V56.4877H177.663C187.083 56.4877 191.376 61.2832 191.376 68.7174C191.376 76.1559 187.083 80.9491 177.663 80.9491ZM217.335 68.7174C217.335 46.5733 202.289 34.1768 180.477 34.1768H134.858V135.653H161.138V102.104H170.398L191.551 135.653H220.968L197.162 99.2948C209.557 94.6662 217.335 84.0886 217.335 68.7174ZM73.16 112.682H62.2446V56.9862H73.16C90.0083 56.9862 99.4282 67.7287 99.4282 84.9164C99.4282 101.94 90.0083 112.682 73.16 112.682ZM74.4782 34.1768H36.1392V135.653H74.4782C106.37 135.653 125.708 115.82 125.708 84.9164C125.708 54.0096 106.37 34.1768 74.4782 34.1768Z" fill="#1B2740"/>
</g>
<path fill-rule="evenodd" clip-rule="evenodd" d="M344.074 34.1768H313.513L328.792 92.1108L344.074 34.1768Z" fill="#00D4C1"/>
</g>
<defs>
<clipPath id="clip0_660_1765">
<rect width="308.575" height="102.858" fill="white" transform="translate(36.1392 33.3594)"/>
</clipPath>
</defs>
</svg>
