<svg width="86" height="115" viewBox="0 0 86 115" fill="none" xmlns="http://www.w3.org/2000/svg">
<g id="music note">
<ellipse id="Ellipse 108" cx="22.0625" cy="97.0007" rx="22.0625" ry="17.4177" fill="#77BFFA"/>
<rect id="Rectangle 129" x="38.7061" y="2.94482" width="5.41885" height="94.4428" fill="#77BFFA"/>
<path id="Polygon 30" d="M42.6939 3.85003C42.7692 3.22808 43.6635 3.20654 43.7687 3.82415L46.0578 17.2666L48.1881 24.3542C48.6339 25.8374 49.2494 27.2642 50.0223 28.6063L50.0841 28.7136C51.4032 31.0041 53.1735 33.003 55.2878 34.5892C56.216 35.2856 57.2044 35.8978 58.2413 36.4187L67.4623 41.0507C69.3755 42.0117 71.1426 43.2395 72.7107 44.6971L73.3255 45.2686C74.6716 46.5199 75.8105 47.9768 76.6999 49.5851C77.6278 51.263 78.2714 53.0828 78.6048 54.9709L78.7272 55.6645C78.9706 57.0427 79.0793 58.4429 79.052 59.8422C79.0084 62.0797 78.6177 64.2992 77.8942 66.417L77.8159 66.6462C76.3261 71.0066 73.5708 74.8242 69.9017 77.6118L69.076 78.2392L70.4177 76.9412C71.4187 75.9729 72.2954 74.8838 73.0276 73.699C73.6776 72.6475 74.2094 71.5274 74.6136 70.3591L74.9793 69.3019C76.0252 66.2784 76.2006 63.0219 75.4854 59.9036L74.8218 57.0188C74.5353 55.7734 74.0755 54.5744 73.4557 53.4569C72.7079 52.1083 71.7371 50.8961 70.5845 49.8717L70.1593 49.4938C69.0951 48.5479 67.9162 47.7395 66.6504 47.0876L53.8631 40.5022L50.56 38.2458C49.3313 37.4065 48.1715 36.4707 47.0914 35.4472L46.0666 34.4761C44.5221 33.0124 43.228 31.3055 42.2358 29.4231C40.1995 25.5599 39.5212 21.1242 40.3101 16.8291L42.6939 3.85003Z" fill="#77BFFA"/>
</g>
</svg>
