<svg width="43" height="57" viewBox="0 0 43 57" fill="none" xmlns="http://www.w3.org/2000/svg">
<ellipse cx="10.895" cy="47.9016" rx="10.895" ry="8.60133" fill="#77BFFA"/>
<rect x="19.1138" y="1.45459" width="2.67597" height="46.6383" fill="#77BFFA"/>
<path d="M21.0832 1.90125C21.1204 1.59411 21.5621 1.58347 21.614 1.88846L22.7444 8.52667L23.7964 12.0267C24.0166 12.7592 24.3205 13.4638 24.7022 14.1266L24.7327 14.1795C25.3841 15.3106 26.2583 16.2977 27.3024 17.0811C27.7608 17.4249 28.2489 17.7273 28.7609 17.9845L33.3145 20.2719C34.2593 20.7465 35.1319 21.3528 35.9063 22.0726L36.2099 22.3548C36.8746 22.9727 37.4371 23.6922 37.8763 24.4864C38.3345 25.315 38.6523 26.2137 38.817 27.1461L38.8774 27.4886C38.9976 28.1692 39.0513 28.8606 39.0378 29.5516C39.0163 30.6566 38.8233 31.7526 38.466 32.7984L38.4274 32.9116C37.6917 35.0649 36.331 36.9501 34.5192 38.3267L34.1114 38.6365L34.774 37.9956C35.2683 37.5174 35.7012 36.9796 36.0628 36.3945C36.3838 35.8752 36.6464 35.3221 36.846 34.7451L37.0266 34.2231C37.5431 32.73 37.6297 31.1219 37.2765 29.582L36.9488 28.1574C36.8073 27.5424 36.5803 26.9503 36.2742 26.3984C35.9049 25.7324 35.4255 25.1338 34.8563 24.6279L34.6464 24.4413C34.1208 23.9742 33.5387 23.575 32.9136 23.2531L26.5989 20.001L24.9677 18.8868C24.361 18.4723 23.7882 18.0102 23.2548 17.5047L22.7488 17.0252C21.986 16.3024 21.347 15.4594 20.857 14.5299C19.8514 12.6221 19.5165 10.4317 19.906 8.31062L21.0832 1.90125Z" fill="#77BFFA"/>
</svg>
