<svg width="379" height="132" viewBox="0 0 379 132" fill="none" xmlns="http://www.w3.org/2000/svg">
<rect width="379" height="132" fill="white" fill-opacity="0.25"/>
<path d="M58.4146 34.6149C54.6887 34.5555 50.9902 35.2299 47.5505 36.5957C44.1109 37.9615 41.0042 39.9893 38.425 42.5523C33.2711 47.5983 30.3872 54.3619 30.3872 61.4036C30.3872 68.4453 33.2711 75.2089 38.425 80.2548C41.0227 82.7408 44.1088 84.7149 47.507 86.0643C50.9053 87.4136 54.5492 88.1121 58.2307 88.1195C61.9122 88.1268 65.5591 87.443 68.9633 86.1073C72.3675 84.7715 75.4623 82.8097 78.0709 80.3342C80.6796 77.8586 82.751 74.9177 84.167 71.6792C85.583 68.4407 86.3158 64.9681 86.3234 61.4597C86.3312 57.9514 85.6137 54.4759 84.2121 51.2317C82.8104 47.9876 80.7519 45.0383 78.1541 42.5523C75.6138 40.0065 72.5493 37.9877 69.1529 36.6219C65.7565 35.2562 62.1007 34.5729 58.4146 34.6149ZM58.4146 81.0485C54.3249 81.0246 50.3332 79.8536 46.9374 77.6815C43.5417 75.5094 40.8924 72.4325 39.32 68.8345C37.7477 65.2367 37.3219 61.2771 38.0959 57.4502C38.8699 53.6231 40.8094 50.098 43.6723 47.3147C45.5664 45.4078 47.8537 43.8946 50.3905 42.8702C52.9276 41.8457 55.6594 41.3322 58.4146 41.3617C61.1625 41.3778 63.8799 41.9122 66.4101 42.9339C68.9404 43.9556 71.2333 45.4445 73.1568 47.3147C76.0198 50.098 77.9592 53.6231 78.7331 57.4502C79.507 61.2771 79.0814 65.2367 77.509 68.8345C75.9367 72.4325 73.2874 75.5094 69.8917 77.6815C66.496 79.8536 62.5041 81.0246 58.4146 81.0485Z" fill="black"/>
<path d="M113.136 49.1401C110.324 49.0983 107.546 49.7306 105.058 50.9788C102.569 52.227 100.449 54.0512 98.8936 56.2839V50.0132H91.9805V101.606H98.9768V81.0484C100.553 83.2448 102.684 85.0283 105.172 86.2349C107.661 87.4416 110.428 88.0327 113.219 87.9539C115.816 87.9669 118.389 87.4896 120.791 86.5497C123.192 85.6096 125.375 84.2255 127.212 82.4772C130.851 78.6755 132.896 73.7319 132.959 68.5867C132.944 63.4327 130.892 58.4733 127.212 54.6962C125.363 52.9348 123.169 51.5374 120.754 50.5841C118.339 49.6308 115.75 49.1401 113.136 49.1401ZM112.386 55.5694C114.185 55.5499 115.97 55.8772 117.632 56.5315C119.295 57.1859 120.802 58.1537 122.062 59.3769C123.323 60.6004 124.31 62.0538 124.966 63.65C125.622 65.2463 125.933 66.9526 125.879 68.6661C125.879 72.0869 124.453 75.3677 121.915 77.7865C119.377 80.2054 115.934 81.5643 112.345 81.5643C108.755 81.5643 105.313 80.2054 102.774 77.7865C100.236 75.3677 98.8103 72.0869 98.8103 68.6661C98.7565 66.9457 99.0695 65.2329 99.7306 63.6311C100.392 62.0295 101.387 60.5724 102.656 59.3479C103.926 58.1236 105.442 57.1574 107.115 56.5078C108.787 55.8584 110.581 55.539 112.386 55.5694Z" fill="black"/>
<path d="M149.117 39.8506L142.12 41.8349V50.0104H134.625V56.4397H142.12V76.2832C142.12 80.2518 143.12 83.1886 145.369 85.0936C147.925 86.7919 151.002 87.6298 154.114 87.4748C155.789 87.4227 157.459 87.2637 159.112 86.9986H159.361V81.0455H158.362C154.364 81.2836 151.616 81.5217 150.366 80.0931C149.367 79.3787 149.117 78.1087 149.117 76.2832V56.4397H159.361V50.0104H149.117V39.8506Z" fill="black"/>
<path d="M174.104 50.0898H166.857V87.2368H174.104V50.0898Z" fill="black"/>
<path d="M170.606 34.8501C169.347 34.8501 168.139 35.3268 167.249 36.1752C166.359 37.0237 165.858 38.1745 165.858 39.3744C165.863 39.9562 165.991 40.5311 166.235 41.0647C166.478 41.5982 166.832 42.0795 167.276 42.4796C167.719 42.8798 168.242 43.1906 168.815 43.3936C169.387 43.5965 169.996 43.6873 170.606 43.6606C171.197 43.6632 171.783 43.5541 172.33 43.3397C172.877 43.1252 173.374 42.8096 173.792 42.4111C174.211 42.0125 174.542 41.539 174.767 41.0178C174.992 40.4965 175.106 39.938 175.104 39.3744C175.116 38.2118 174.653 37.0901 173.814 36.2461C172.975 35.402 171.825 34.9015 170.606 34.8501Z" fill="black"/>
<path d="M198.841 79.855L186.848 50.0898H179.352L194.843 86.9985H202.839L218.331 50.328V50.0898H210.835L198.841 79.855Z" fill="black"/>
<path d="M239.32 49.1379C236.615 49.0627 233.924 49.5176 231.412 50.4744C228.898 51.4311 226.62 52.8693 224.714 54.6999C222.809 56.5306 221.318 58.7145 220.334 61.1164C219.352 63.5184 218.897 66.0873 218.997 68.6639C218.947 71.226 219.428 73.7723 220.414 76.1562C221.402 78.5401 222.872 80.7145 224.744 82.5542C226.738 84.3672 229.091 85.785 231.664 86.7251C234.237 87.6652 236.982 88.1092 239.736 88.031C243.082 88.1588 246.406 87.4583 249.384 85.9977C252.362 84.5371 254.892 82.3663 256.727 79.6968L250.98 76.6012V76.3631L250.731 76.6012C249.536 78.2866 247.9 79.6479 245.99 80.5521C244.077 81.4564 241.952 81.8728 239.819 81.7605C236.667 81.9263 233.554 81.0201 231.039 79.203C228.521 77.3859 226.762 74.7762 226.078 71.8388H258.311V71.6007C258.518 70.6617 258.601 69.7018 258.56 68.7431C258.701 63.7452 256.822 58.8865 253.313 55.1704C251.576 53.2619 249.425 51.7346 247.009 50.6933C244.595 49.652 241.97 49.1214 239.32 49.1379ZM239.32 55.5671C242.344 55.4728 245.292 56.4785 247.566 58.3802C249.839 60.2819 251.269 62.937 251.563 65.8063H226.078C226.534 62.8283 228.151 60.123 230.604 58.2267C233.057 56.3301 236.168 55.3811 239.32 55.5671Z" fill="black"/>
<path d="M283.796 49.6149C281.39 49.4479 278.985 49.9709 276.893 51.1166C274.799 52.2624 273.114 53.9784 272.052 56.0442V50.0911H265.057V86.9999H272.052V67.4739C271.949 65.9648 272.16 64.4507 272.674 63.0199C273.188 61.5891 273.996 60.2702 275.051 59.1397C276.246 58.1588 277.637 57.4204 279.14 56.9699C280.644 56.5197 282.229 56.3667 283.796 56.5204H284.046V49.6149H283.796Z" fill="black"/>
<path d="M347.263 84.8577L323.11 35.5666C323.021 35.2623 322.821 34.9985 322.545 34.8235C322.272 34.6485 321.939 34.5741 321.609 34.6141H317.113C316.784 34.5741 316.451 34.6485 316.177 34.8235C315.901 34.9985 315.701 35.2623 315.613 35.5666L294.624 84.8577C294.509 85.0921 294.461 85.3508 294.482 85.6087C294.502 85.8667 294.591 86.1153 294.742 86.3304C294.892 86.5457 295.099 86.7204 295.34 86.8377C295.582 86.9551 295.852 87.0112 296.124 87.0007H345.848C347.013 87.0007 348.095 85.7308 347.263 84.8577ZM317.529 56.2831L327.939 77.2377C328.054 77.4869 328.104 77.7581 328.085 78.0291C328.067 78.3001 327.98 78.563 327.834 78.796C327.686 79.0287 327.484 79.2249 327.242 79.3681C327 79.5112 326.726 79.5972 326.441 79.6189H307.283C306.993 79.6003 306.708 79.5196 306.453 79.3827C306.198 79.2457 305.979 79.0559 305.811 78.8276C305.643 78.599 305.532 78.3376 305.484 78.0625C305.436 77.7873 305.454 77.5056 305.535 77.2377L314.531 56.2831C314.667 56.0147 314.88 55.7884 315.145 55.6299C315.409 55.4716 315.716 55.3876 316.029 55.3876C316.343 55.3876 316.649 55.4716 316.915 55.6299C317.179 55.7884 317.392 56.0147 317.529 56.2831Z" fill="#FF3300"/>
</svg>
