<svg width="507" height="133" viewBox="0 0 507 133" fill="none" xmlns="http://www.w3.org/2000/svg">
<rect y="0.608887" width="507" height="132.216" fill="white" fill-opacity="0.25"/>
<g clip-path="url(#clip0_660_1774)">
<path d="M134.299 41.1365H156.76C173.014 41.1365 177.131 50.9282 177.131 58.9089C177.131 66.8895 172.922 76.6812 156.76 76.6812H142.903V104.675H134.299V41.1365ZM142.903 69.1303H154.24C161.062 69.1303 167.883 67.5341 167.883 58.9089C167.883 50.2836 161.062 48.6875 154.24 48.6875H142.903V69.1303ZM188.377 40.8296C189.54 40.8304 190.678 41.173 191.648 41.815C192.618 42.4569 193.377 43.3698 193.832 44.4398C194.286 45.5098 194.416 46.6898 194.204 47.8327C193.992 48.9756 193.448 50.031 192.64 50.8674C191.832 51.7038 190.796 52.2843 189.66 52.5366C188.524 52.7889 187.339 52.7018 186.253 52.2862C185.166 51.8705 184.226 51.1448 183.549 50.1992C182.872 49.2537 182.489 48.1302 182.447 46.9686C182.422 46.1738 182.557 45.3821 182.844 44.6403C183.13 43.8985 183.563 43.2215 184.115 42.6493C184.668 42.0771 185.33 41.6213 186.062 41.3088C186.794 40.9962 187.581 40.8333 188.377 40.8296ZM184.413 62.1318H192.402V104.675H184.413V62.1318ZM201.65 62.1318H209.731V68.7005H209.916C211.296 66.2401 213.343 64.2181 215.821 62.8663C218.299 61.5145 221.108 60.8876 223.927 61.0575C232.192 61.0575 239.289 65.9994 239.289 77.2951V104.675H231.301V79.5665C231.301 71.5552 226.723 68.6084 221.591 68.6084C214.862 68.6084 209.731 72.9057 209.731 82.7895V104.675H201.65V62.1318ZM254.099 86.3808C254.099 93.8089 261.013 98.6587 268.479 98.6587C270.788 98.5916 273.049 97.9813 275.078 96.8773C277.107 95.7733 278.846 94.2067 280.155 92.3049L286.3 96.9705C284.102 99.8664 281.228 102.181 277.929 103.711C274.63 105.241 271.005 105.941 267.373 105.749C253.884 105.749 245.465 96.0804 245.465 83.4034C245.348 80.4764 245.83 77.5562 246.883 74.8223C247.937 72.0884 249.538 69.5985 251.59 67.5057C253.642 65.4128 256.1 63.7612 258.815 62.6523C261.529 61.5435 264.441 61.0007 267.373 61.0575C282.367 61.0575 288.113 72.5374 288.113 83.4955V86.3808H254.099ZM279.663 79.9042C279.479 72.8136 275.515 67.6262 267.373 67.6262C264.019 67.6034 260.782 68.8619 258.326 71.1443C255.87 73.4267 254.38 76.5603 254.161 79.9042H279.663ZM324.799 73.4582C323.501 71.9244 321.874 70.7008 320.04 69.8774C318.205 69.0541 316.21 68.6519 314.199 68.7005C305.411 68.7005 300.895 75.791 300.895 83.7717C300.785 85.6392 301.061 87.5093 301.705 89.266C302.349 91.0228 303.347 92.6286 304.637 93.9841C305.928 95.3396 307.483 96.4158 309.207 97.146C310.932 97.8762 312.787 98.2448 314.66 98.229C316.633 98.2951 318.594 97.8992 320.387 97.0731C322.179 96.247 323.754 95.0136 324.984 93.4713L330.73 99.1498C328.663 101.335 326.151 103.05 323.362 104.178C320.573 105.306 317.574 105.821 314.568 105.688C311.611 105.837 308.656 105.366 305.892 104.306C303.128 103.246 300.616 101.62 298.519 99.5334C296.421 97.4464 294.783 94.9443 293.711 92.1876C292.638 89.4309 292.155 86.4806 292.292 83.5262C292.158 80.5597 292.641 77.5978 293.711 74.8274C294.781 72.0569 296.414 69.538 298.507 67.4297C300.6 65.3213 303.108 63.6693 305.872 62.5778C308.637 61.4864 311.597 60.9792 314.568 61.0882C317.611 61.011 320.636 61.569 323.451 62.7265C326.265 63.884 328.807 65.6155 330.914 67.8104L324.799 73.4582Z" fill="black"/>
<path d="M354.634 61.0571C357.575 61.1004 360.478 61.7226 363.177 62.8879C365.877 64.0532 368.32 65.7388 370.366 67.8483C372.413 69.9578 374.023 72.4498 375.105 75.1816C376.186 77.9134 376.718 80.8315 376.67 83.7689C376.621 86.7062 375.994 89.6052 374.822 92.2999C373.651 94.9947 371.96 97.4322 369.844 99.4732C367.729 101.514 365.232 103.118 362.496 104.194C359.759 105.27 356.837 105.796 353.897 105.743C347.972 105.635 342.332 103.183 338.216 98.9249C334.099 94.667 331.841 88.9512 331.939 83.0322C332.037 77.1132 334.481 71.4748 338.737 67.3548C342.992 63.2347 348.709 60.9698 354.634 61.0571ZM354.634 98.2286C363.238 98.2286 368.645 92.0896 368.645 83.403C368.645 74.7163 363.238 68.608 354.634 68.608C346.031 68.608 340.593 74.747 340.593 83.403C340.593 92.0589 346 98.2286 354.634 98.2286ZM383.824 62.1314H391.905V68.7001C393.291 66.2372 395.343 64.2141 397.826 62.8624C400.309 61.5106 403.124 60.885 405.947 61.0571C414.212 61.0571 421.309 65.999 421.309 77.2947V104.675H413.229V79.5661C413.229 71.5547 408.65 68.608 403.55 68.608C396.79 68.608 391.69 72.9053 391.69 82.7891V104.675H383.824V62.1314ZM436.365 86.3804C436.365 93.8085 443.278 98.6583 450.745 98.6583C453.053 98.584 455.311 97.9705 457.338 96.8671C459.366 95.7637 461.107 94.2011 462.421 92.3045L468.566 96.9701C466.366 99.8422 463.498 102.135 460.21 103.648C456.923 105.162 453.315 105.852 449.7 105.657C436.242 105.657 427.793 95.9879 427.793 83.3109C427.674 80.3759 428.159 77.4479 429.218 74.7077C430.277 71.9674 431.887 69.4732 433.949 67.379C436.011 65.2848 438.48 63.6352 441.205 62.532C443.93 61.4288 446.853 60.8955 449.792 60.965C464.817 60.965 470.563 72.4449 470.563 83.403V86.2883L436.365 86.3804ZM461.868 79.9037C461.683 72.8132 457.75 67.6258 449.577 67.6258C446.221 67.5955 442.98 68.8515 440.523 71.1354C438.065 73.4193 436.577 76.5573 436.365 79.9037H461.868Z" fill="black"/>
<path d="M81.2358 37.5145L83.3866 25.5742" stroke="#201D1E" stroke-width="1.77" stroke-linecap="square"/>
<path d="M91.1297 33.2784L83.6326 24.1313L73.4316 30.0862" stroke="#201D1E" stroke-width="1.77" stroke-linecap="square" stroke-linejoin="round"/>
<path d="M72.2642 88.4676L74.3535 76.5273" stroke="#201D1E" stroke-width="1.77" stroke-linecap="square"/>
<path d="M82.1575 84.2013L74.599 75.085L64.4287 81.0705" stroke="#201D1E" stroke-width="1.77" stroke-linecap="square" stroke-linejoin="round"/>
<path d="M76.5962 63.8505L78.6855 51.9102" stroke="#201D1E" stroke-width="1.77" stroke-linecap="square"/>
<path d="M86.4901 59.5837L78.9622 50.498L68.792 56.4529" stroke="#201D1E" stroke-width="1.77" stroke-linecap="square" stroke-linejoin="round"/>
<path d="M69.5293 108.849C72.2953 108.849 74.5376 106.609 74.5376 103.846C74.5376 101.083 72.2953 98.8428 69.5293 98.8428C66.7633 98.8428 64.521 101.083 64.521 103.846C64.521 106.609 66.7633 108.849 69.5293 108.849Z" fill="#201D1E"/>
<path d="M55.334 87.4238L46.147 93.8084" stroke="#201D1E" stroke-width="1.68" stroke-linecap="square"/>
<path d="M55.8872 97.7683L45.041 94.5761L45.8399 83.311" stroke="#201D1E" stroke-width="1.68" stroke-linecap="square" stroke-linejoin="round"/>
<path d="M88.7021 93.4097L95.0931 102.618" stroke="#201D1E" stroke-width="1.68" stroke-linecap="square"/>
<path d="M84.585 102.925L95.8613 103.692L99.0568 92.9185" stroke="#201D1E" stroke-width="1.68" stroke-linecap="square" stroke-linejoin="round"/>
<path d="M99.1797 74.7163L110.425 76.7422" stroke="#201D1E" stroke-width="1.72" stroke-linecap="square"/>
<path d="M103.051 84.5694L111.777 76.9878L106.277 66.8892" stroke="#201D1E" stroke-width="1.72" stroke-linecap="square" stroke-linejoin="round"/>
<path d="M95.8921 52.4318L105.909 46.9067" stroke="#201D1E" stroke-width="1.72" stroke-linecap="square"/>
<path d="M96.4453 41.8423L107.107 46.2623L105.11 57.5888" stroke="#201D1E" stroke-width="1.72" stroke-linecap="square" stroke-linejoin="round"/>
<path d="M51.7085 66.3673L40.4321 64.4028" stroke="#201D1E" stroke-width="1.72" stroke-linecap="square"/>
<path d="M44.6722 74.2866L39.0801 64.188L47.714 56.5757" stroke="#201D1E" stroke-width="1.72" stroke-linecap="square" stroke-linejoin="round"/>
<path d="M62.4009 46.5077L54.873 37.9131" stroke="#201D1E" stroke-width="1.72" stroke-linecap="square"/>
<path d="M65.5042 36.4092L53.982 36.9003L51.9541 48.2267" stroke="#201D1E" stroke-width="1.72" stroke-linecap="square" stroke-linejoin="round"/>
</g>
<defs>
<clipPath id="clip0_660_1774">
<rect width="434.125" height="87.4497" fill="white" transform="translate(36.4375 21.4302)"/>
</clipPath>
</defs>
</svg>
