<svg xmlns="http://www.w3.org/2000/svg" fill="none" viewBox="22.418410041841003 11.8 254.27196652719667 271.99" style="max-height: 500px" width="254.27196652719667" height="271.99">
<g filter="url(#filter0_dddd_846_982)">
<path fill="#93CFF2" d="M217.248 70.9444C209.427 95.2078 205.478 71.8805 196.096 65.4915C186.714 59.1025 161.086 70.9443 183.274 47.8079C191.524 39.2045 205.541 28.619 223.531 25.2052C226.428 43.5889 220.73 60.1412 217.248 70.9444Z"/>
<path stroke="white" d="M216.772 70.791C215.798 73.8103 214.891 76.07 214.035 77.7066C213.174 79.3522 212.387 80.3222 211.677 80.8166C211 81.2877 210.388 81.333 209.769 81.0986C209.108 80.8485 208.402 80.2642 207.634 79.3839C206.537 78.1261 205.421 76.3976 204.205 74.5143C203.713 73.7522 203.205 72.9647 202.674 72.1727C200.862 69.4654 198.81 66.7351 196.377 65.0782C193.904 63.3941 190.414 62.937 187.037 62.7871C185.793 62.7319 184.543 62.7182 183.351 62.7052C182.917 62.7004 182.49 62.6957 182.074 62.6891C180.504 62.6643 179.086 62.6126 177.922 62.4357C176.74 62.2561 175.916 61.9601 175.449 61.5216C175.033 61.1303 174.829 60.5528 175.082 59.5565C175.343 58.5302 176.079 57.1328 177.472 55.2453C178.858 53.3666 180.868 51.0384 183.634 48.154C191.762 39.6787 205.505 29.2845 223.116 25.795C225.707 43.169 220.629 58.8658 217.165 69.575C217.031 69.9878 216.9 70.3932 216.772 70.791Z"/>
</g>
<g filter="url(#filter1_dddd_846_982)">
<path fill="#93CFF2" d="M129.561 61.5624L123.432 64.7067C112.507 70.3108 104.168 79.9161 100.154 91.5194L96.332 89.1101C83.5592 81.0581 68.7685 76.7852 53.6696 76.7851L25.3899 76.7851L38.6815 69.4977C48.2656 64.243 58.6463 60.5951 69.4107 58.6992L70.9111 58.4349C81.0303 56.6526 91.3638 56.4404 101.548 57.806L129.561 61.5624Z"/>
<path stroke="white" d="M101.481 58.3016L127.913 61.8459L123.204 64.2618C112.351 69.8289 104.024 79.3036 99.8909 90.7626L96.5986 88.6871C83.746 80.5848 68.8629 76.2852 53.6696 76.2851L27.3419 76.2851L38.9219 69.9361C48.4581 64.7077 58.7869 61.0781 69.4974 59.1916L70.9978 58.9273C81.0665 57.1539 91.3483 56.9428 101.481 58.3016Z"/>
</g>
<g filter="url(#filter2_dddd_846_982)">
<path fill="#93CFF2" d="M224.339 123.488L224.29 130.13C224.205 141.969 219.552 153.317 211.302 161.808L214.327 163.628C227.265 171.411 237.736 182.697 244.531 196.181L256.429 219.794L256.917 205.777C257.297 194.853 255.883 183.942 252.732 173.475L252.639 173.165C249.677 163.326 245.217 154.003 239.415 145.523L224.339 123.488Z"/>
<path stroke="white" d="M239.002 145.805L224.827 125.087L224.79 130.134C224.705 141.891 220.164 153.17 212.096 161.702L214.585 163.199C227.604 171.031 238.141 182.388 244.977 195.956L255.997 217.826L256.417 205.76C256.795 194.891 255.389 184.033 252.254 173.62L252.16 173.309C249.213 163.52 244.775 154.243 239.002 145.805Z"/>
</g>
<g filter="url(#filter3_dddd_846_982)">
<path fill="#93CFF2" d="M78.2973 157.116L77.7424 158.913C74.6969 168.779 76.5324 179.505 82.6848 187.796C66.6023 189.33 52.2789 198.612 44.3087 212.665L40.6033 219.198L38.6619 204.71C37.7328 197.777 38.8556 190.723 41.8915 184.42C45.1809 177.592 50.5529 171.984 57.2336 168.404L78.2973 157.116Z"/>
<path stroke="white" d="M57.4698 168.844L77.4604 158.132L77.2647 158.766C74.2579 168.506 75.9364 179.071 81.7738 187.388C65.8808 189.182 51.7816 198.475 43.8738 212.418L40.9015 217.659L39.1575 204.644C38.2414 197.807 39.3485 190.852 42.342 184.637C45.5854 177.904 50.8824 172.374 57.4698 168.844Z"/>
</g>
<g filter="url(#filter4_dddd_846_982)">
<path fill="#93CFF2" d="M161.526 210.193L160.089 211.407C152.201 218.069 141.612 220.575 131.575 218.156C136.454 233.557 133.514 250.37 123.699 263.202L119.136 269.168L133.229 265.288C139.973 263.43 146.026 259.638 150.638 254.379C155.636 248.68 158.696 241.543 159.377 233.994L161.526 210.193Z"/>
<path stroke="white" d="M158.879 233.949L160.918 211.361L160.411 211.789C152.624 218.366 142.243 220.954 132.306 218.835C136.872 234.164 133.834 250.775 124.096 263.506L120.436 268.292L133.096 264.806C139.746 262.974 145.714 259.235 150.262 254.049C155.19 248.43 158.207 241.392 158.879 233.949Z"/>
</g>
<g filter="url(#filter5_f_846_982)" opacity="0.75">
<path fill="url(#paint0_linear_846_982)" d="M200.182 166.531C175.093 199.56 146.088 220.5 97.7193 205.84C78.6786 161.437 82.5397 129.256 107.628 96.227C126.079 61.5902 155.764 51.5793 193.26 80.0613C232.027 109.509 222.896 136.629 200.182 166.531Z"/>
</g>
<g filter="url(#filter6_d_846_982)">
<path fill="url(#paint1_linear_846_982)" d="M200.182 166.531C175.093 199.56 146.088 220.5 97.7193 205.84C78.6786 161.437 82.5397 129.256 107.628 96.227C126.079 61.5902 155.764 51.5793 193.26 80.0613C232.027 109.509 222.896 136.629 200.182 166.531Z"/>
<path stroke="url(#paint2_linear_846_982)" d="M108.027 96.5295L108.051 96.4975L108.07 96.4621C117.257 79.2154 129.192 68.1903 143.413 64.9622C157.631 61.7349 174.276 66.2689 192.958 80.4595C212.269 95.1279 219.549 109.135 219.277 123.116C219.004 137.144 211.132 151.289 199.784 166.228C187.26 182.716 173.797 196.133 157.473 203.614C141.216 211.064 122.069 212.652 98.0871 205.428C88.6557 183.368 84.9178 164.375 86.623 146.816C88.3332 129.206 95.5237 112.989 108.027 96.5295Z"/>
</g>
<mask height="148" width="135" y="63" x="85" maskUnits="userSpaceOnUse" style="mask-type:alpha" id="mask0_846_982">
<path fill="url(#paint3_linear_846_982)" d="M200.182 166.531C175.093 199.559 146.088 220.5 97.7193 205.839C78.6786 161.436 82.5397 129.256 107.628 96.2268C126.079 61.5899 155.764 51.5791 193.26 80.0611C232.027 109.509 222.896 136.629 200.182 166.531Z"/>
</mask>
<g mask="url(#mask0_846_982)">
<g filter="url(#filter7_f_846_982)">
<circle fill="url(#paint4_linear_846_982)" r="71.8594" cy="177.079" cx="144.766"/>
</g>
<g filter="url(#filter8_dd_846_982)">
<path shape-rendering="crispEdges" stroke="white" d="M117.447 156.32L119.557 120.794L151.16 104.431L175.255 120.086L172.915 155.462L141.542 171.975L117.447 156.32Z"/>
</g>
<g filter="url(#filter9_dd_846_982)">
<path stroke="white" d="M151.279 104.39L153.717 63.7034"/>
</g>
<g filter="url(#filter10_dd_846_982)">
<path stroke="white" d="M175.313 120.065L219.584 110.664"/>
</g>
<g filter="url(#filter11_dd_846_982)">
<line stroke="white" y2="177.923" x2="195.421" y1="155.5" x1="172.983"/>
</g>
<g filter="url(#filter12_dd_846_982)">
<line stroke="#FBF9F7" y2="112.899" x2="96.2644" y1="121.018" x1="119.829"/>
</g>
<g filter="url(#filter13_dd_846_982)">
<path stroke="white" d="M141.564 171.973L138.867 212.214"/>
</g>
<g filter="url(#filter14_dd_846_982)">
<line stroke="white" y2="171.514" x2="86.0592" y1="156.304" x1="117.375"/>
</g>
</g>
<defs>
<filter color-interpolation-filters="sRGB" filterUnits="userSpaceOnUse" height="106.531" width="99.854" y="0.205078" x="149.472" id="filter0_dddd_846_982">
<feFlood result="BackgroundImageFix" flood-opacity="0"/>
<feColorMatrix result="hardAlpha" values="0 0 0 0 0 0 0 0 0 0 0 0 0 0 0 0 0 0 127 0" type="matrix" in="SourceAlpha"/>
<feOffset/>
<feGaussianBlur stdDeviation="5"/>
<feComposite operator="out" in2="hardAlpha"/>
<feColorMatrix values="0 0 0 0 0.639216 0 0 0 0 0.796078 0 0 0 0 0.933333 0 0 0 0.85 0" type="matrix"/>
<feBlend result="effect1_dropShadow_846_982" in2="BackgroundImageFix" mode="normal"/>
<feColorMatrix result="hardAlpha" values="0 0 0 0 0 0 0 0 0 0 0 0 0 0 0 0 0 0 127 0" type="matrix" in="SourceAlpha"/>
<feOffset/>
<feGaussianBlur stdDeviation="12.5"/>
<feComposite operator="out" in2="hardAlpha"/>
<feColorMatrix values="0 0 0 0 0.639216 0 0 0 0 0.796078 0 0 0 0 0.933333 0 0 0 0.5 0" type="matrix"/>
<feBlend result="effect2_dropShadow_846_982" in2="effect1_dropShadow_846_982" mode="normal"/>
<feColorMatrix result="hardAlpha" values="0 0 0 0 0 0 0 0 0 0 0 0 0 0 0 0 0 0 127 0" type="matrix" in="SourceAlpha"/>
<feOffset/>
<feGaussianBlur stdDeviation="7.5"/>
<feComposite operator="out" in2="hardAlpha"/>
<feColorMatrix values="0 0 0 0 0.639216 0 0 0 0 0.796078 0 0 0 0 0.933333 0 0 0 0.75 0" type="matrix"/>
<feBlend result="effect3_dropShadow_846_982" in2="effect2_dropShadow_846_982" mode="normal"/>
<feColorMatrix result="hardAlpha" values="0 0 0 0 0 0 0 0 0 0 0 0 0 0 0 0 0 0 127 0" type="matrix" in="SourceAlpha"/>
<feOffset dy="2"/>
<feGaussianBlur stdDeviation="5"/>
<feComposite operator="out" in2="hardAlpha"/>
<feColorMatrix values="0 0 0 0 0 0 0 0 0 0 0 0 0 0 0 0 0 0 0.25 0" type="matrix"/>
<feBlend result="effect4_dropShadow_846_982" in2="effect3_dropShadow_846_982" mode="normal"/>
<feBlend result="shape" in2="effect4_dropShadow_846_982" in="SourceGraphic" mode="normal"/>
</filter>
<filter color-interpolation-filters="sRGB" filterUnits="userSpaceOnUse" height="84.6003" width="154.171" y="31.9189" x="0.390137" id="filter1_dddd_846_982">
<feFlood result="BackgroundImageFix" flood-opacity="0"/>
<feColorMatrix result="hardAlpha" values="0 0 0 0 0 0 0 0 0 0 0 0 0 0 0 0 0 0 127 0" type="matrix" in="SourceAlpha"/>
<feOffset/>
<feGaussianBlur stdDeviation="5"/>
<feComposite operator="out" in2="hardAlpha"/>
<feColorMatrix values="0 0 0 0 0.639216 0 0 0 0 0.796078 0 0 0 0 0.933333 0 0 0 0.85 0" type="matrix"/>
<feBlend result="effect1_dropShadow_846_982" in2="BackgroundImageFix" mode="normal"/>
<feColorMatrix result="hardAlpha" values="0 0 0 0 0 0 0 0 0 0 0 0 0 0 0 0 0 0 127 0" type="matrix" in="SourceAlpha"/>
<feOffset/>
<feGaussianBlur stdDeviation="12.5"/>
<feComposite operator="out" in2="hardAlpha"/>
<feColorMatrix values="0 0 0 0 0.639216 0 0 0 0 0.796078 0 0 0 0 0.933333 0 0 0 0.5 0" type="matrix"/>
<feBlend result="effect2_dropShadow_846_982" in2="effect1_dropShadow_846_982" mode="normal"/>
<feColorMatrix result="hardAlpha" values="0 0 0 0 0 0 0 0 0 0 0 0 0 0 0 0 0 0 127 0" type="matrix" in="SourceAlpha"/>
<feOffset/>
<feGaussianBlur stdDeviation="7.5"/>
<feComposite operator="out" in2="hardAlpha"/>
<feColorMatrix values="0 0 0 0 0.639216 0 0 0 0 0.796078 0 0 0 0 0.933333 0 0 0 0.75 0" type="matrix"/>
<feBlend result="effect3_dropShadow_846_982" in2="effect2_dropShadow_846_982" mode="normal"/>
<feColorMatrix result="hardAlpha" values="0 0 0 0 0 0 0 0 0 0 0 0 0 0 0 0 0 0 127 0" type="matrix" in="SourceAlpha"/>
<feOffset dy="2"/>
<feGaussianBlur stdDeviation="5"/>
<feComposite operator="out" in2="hardAlpha"/>
<feColorMatrix values="0 0 0 0 0 0 0 0 0 0 0 0 0 0 0 0 0 0 0.25 0" type="matrix"/>
<feBlend result="effect4_dropShadow_846_982" in2="effect3_dropShadow_846_982" mode="normal"/>
<feBlend result="shape" in2="effect4_dropShadow_846_982" in="SourceGraphic" mode="normal"/>
</filter>
<filter color-interpolation-filters="sRGB" filterUnits="userSpaceOnUse" height="146.306" width="95.6748" y="98.4878" x="186.302" id="filter2_dddd_846_982">
<feFlood result="BackgroundImageFix" flood-opacity="0"/>
<feColorMatrix result="hardAlpha" values="0 0 0 0 0 0 0 0 0 0 0 0 0 0 0 0 0 0 127 0" type="matrix" in="SourceAlpha"/>
<feOffset/>
<feGaussianBlur stdDeviation="5"/>
<feComposite operator="out" in2="hardAlpha"/>
<feColorMatrix values="0 0 0 0 0.639216 0 0 0 0 0.796078 0 0 0 0 0.933333 0 0 0 0.85 0" type="matrix"/>
<feBlend result="effect1_dropShadow_846_982" in2="BackgroundImageFix" mode="normal"/>
<feColorMatrix result="hardAlpha" values="0 0 0 0 0 0 0 0 0 0 0 0 0 0 0 0 0 0 127 0" type="matrix" in="SourceAlpha"/>
<feOffset/>
<feGaussianBlur stdDeviation="12.5"/>
<feComposite operator="out" in2="hardAlpha"/>
<feColorMatrix values="0 0 0 0 0.639216 0 0 0 0 0.796078 0 0 0 0 0.933333 0 0 0 0.5 0" type="matrix"/>
<feBlend result="effect2_dropShadow_846_982" in2="effect1_dropShadow_846_982" mode="normal"/>
<feColorMatrix result="hardAlpha" values="0 0 0 0 0 0 0 0 0 0 0 0 0 0 0 0 0 0 127 0" type="matrix" in="SourceAlpha"/>
<feOffset/>
<feGaussianBlur stdDeviation="7.5"/>
<feComposite operator="out" in2="hardAlpha"/>
<feColorMatrix values="0 0 0 0 0.639216 0 0 0 0 0.796078 0 0 0 0 0.933333 0 0 0 0.75 0" type="matrix"/>
<feBlend result="effect3_dropShadow_846_982" in2="effect2_dropShadow_846_982" mode="normal"/>
<feColorMatrix result="hardAlpha" values="0 0 0 0 0 0 0 0 0 0 0 0 0 0 0 0 0 0 127 0" type="matrix" in="SourceAlpha"/>
<feOffset dy="2"/>
<feGaussianBlur stdDeviation="5"/>
<feComposite operator="out" in2="hardAlpha"/>
<feColorMatrix values="0 0 0 0 0 0 0 0 0 0 0 0 0 0 0 0 0 0 0.25 0" type="matrix"/>
<feBlend result="effect4_dropShadow_846_982" in2="effect3_dropShadow_846_982" mode="normal"/>
<feBlend result="shape" in2="effect4_dropShadow_846_982" in="SourceGraphic" mode="normal"/>
</filter>
<filter color-interpolation-filters="sRGB" filterUnits="userSpaceOnUse" height="112.082" width="94.3398" y="132.116" x="13.3447" id="filter3_dddd_846_982">
<feFlood result="BackgroundImageFix" flood-opacity="0"/>
<feColorMatrix result="hardAlpha" values="0 0 0 0 0 0 0 0 0 0 0 0 0 0 0 0 0 0 127 0" type="matrix" in="SourceAlpha"/>
<feOffset/>
<feGaussianBlur stdDeviation="5"/>
<feComposite operator="out" in2="hardAlpha"/>
<feColorMatrix values="0 0 0 0 0.639216 0 0 0 0 0.796078 0 0 0 0 0.933333 0 0 0 0.85 0" type="matrix"/>
<feBlend result="effect1_dropShadow_846_982" in2="BackgroundImageFix" mode="normal"/>
<feColorMatrix result="hardAlpha" values="0 0 0 0 0 0 0 0 0 0 0 0 0 0 0 0 0 0 127 0" type="matrix" in="SourceAlpha"/>
<feOffset/>
<feGaussianBlur stdDeviation="12.5"/>
<feComposite operator="out" in2="hardAlpha"/>
<feColorMatrix values="0 0 0 0 0.639216 0 0 0 0 0.796078 0 0 0 0 0.933333 0 0 0 0.5 0" type="matrix"/>
<feBlend result="effect2_dropShadow_846_982" in2="effect1_dropShadow_846_982" mode="normal"/>
<feColorMatrix result="hardAlpha" values="0 0 0 0 0 0 0 0 0 0 0 0 0 0 0 0 0 0 127 0" type="matrix" in="SourceAlpha"/>
<feOffset/>
<feGaussianBlur stdDeviation="7.5"/>
<feComposite operator="out" in2="hardAlpha"/>
<feColorMatrix values="0 0 0 0 0.639216 0 0 0 0 0.796078 0 0 0 0 0.933333 0 0 0 0.75 0" type="matrix"/>
<feBlend result="effect3_dropShadow_846_982" in2="effect2_dropShadow_846_982" mode="normal"/>
<feColorMatrix result="hardAlpha" values="0 0 0 0 0 0 0 0 0 0 0 0 0 0 0 0 0 0 127 0" type="matrix" in="SourceAlpha"/>
<feOffset dy="2"/>
<feGaussianBlur stdDeviation="5"/>
<feComposite operator="out" in2="hardAlpha"/>
<feColorMatrix values="0 0 0 0 0 0 0 0 0 0 0 0 0 0 0 0 0 0 0.25 0" type="matrix"/>
<feBlend result="effect4_dropShadow_846_982" in2="effect3_dropShadow_846_982" mode="normal"/>
<feBlend result="shape" in2="effect4_dropShadow_846_982" in="SourceGraphic" mode="normal"/>
</filter>
<filter color-interpolation-filters="sRGB" filterUnits="userSpaceOnUse" height="108.975" width="92.3901" y="185.193" x="94.1357" id="filter4_dddd_846_982">
<feFlood result="BackgroundImageFix" flood-opacity="0"/>
<feColorMatrix result="hardAlpha" values="0 0 0 0 0 0 0 0 0 0 0 0 0 0 0 0 0 0 127 0" type="matrix" in="SourceAlpha"/>
<feOffset/>
<feGaussianBlur stdDeviation="5"/>
<feComposite operator="out" in2="hardAlpha"/>
<feColorMatrix values="0 0 0 0 0.639216 0 0 0 0 0.796078 0 0 0 0 0.933333 0 0 0 0.85 0" type="matrix"/>
<feBlend result="effect1_dropShadow_846_982" in2="BackgroundImageFix" mode="normal"/>
<feColorMatrix result="hardAlpha" values="0 0 0 0 0 0 0 0 0 0 0 0 0 0 0 0 0 0 127 0" type="matrix" in="SourceAlpha"/>
<feOffset/>
<feGaussianBlur stdDeviation="12.5"/>
<feComposite operator="out" in2="hardAlpha"/>
<feColorMatrix values="0 0 0 0 0.639216 0 0 0 0 0.796078 0 0 0 0 0.933333 0 0 0 0.5 0" type="matrix"/>
<feBlend result="effect2_dropShadow_846_982" in2="effect1_dropShadow_846_982" mode="normal"/>
<feColorMatrix result="hardAlpha" values="0 0 0 0 0 0 0 0 0 0 0 0 0 0 0 0 0 0 127 0" type="matrix" in="SourceAlpha"/>
<feOffset/>
<feGaussianBlur stdDeviation="7.5"/>
<feComposite operator="out" in2="hardAlpha"/>
<feColorMatrix values="0 0 0 0 0.639216 0 0 0 0 0.796078 0 0 0 0 0.933333 0 0 0 0.75 0" type="matrix"/>
<feBlend result="effect3_dropShadow_846_982" in2="effect2_dropShadow_846_982" mode="normal"/>
<feColorMatrix result="hardAlpha" values="0 0 0 0 0 0 0 0 0 0 0 0 0 0 0 0 0 0 127 0" type="matrix" in="SourceAlpha"/>
<feOffset dy="2"/>
<feGaussianBlur stdDeviation="5"/>
<feComposite operator="out" in2="hardAlpha"/>
<feColorMatrix values="0 0 0 0 0 0 0 0 0 0 0 0 0 0 0 0 0 0 0.25 0" type="matrix"/>
<feBlend result="effect4_dropShadow_846_982" in2="effect3_dropShadow_846_982" mode="normal"/>
<feBlend result="shape" in2="effect4_dropShadow_846_982" in="SourceGraphic" mode="normal"/>
</filter>
<filter color-interpolation-filters="sRGB" filterUnits="userSpaceOnUse" height="177.125" width="164.061" y="48.4719" x="70.7231" id="filter5_f_846_982">
<feFlood result="BackgroundImageFix" flood-opacity="0"/>
<feBlend result="shape" in2="BackgroundImageFix" in="SourceGraphic" mode="normal"/>
<feGaussianBlur result="effect1_foregroundBlur_846_982" stdDeviation="7.5"/>
</filter>
<filter color-interpolation-filters="sRGB" filterUnits="userSpaceOnUse" height="167.125" width="154.061" y="55.4719" x="75.7231" id="filter6_d_846_982">
<feFlood result="BackgroundImageFix" flood-opacity="0"/>
<feColorMatrix result="hardAlpha" values="0 0 0 0 0 0 0 0 0 0 0 0 0 0 0 0 0 0 127 0" type="matrix" in="SourceAlpha"/>
<feOffset dy="2"/>
<feGaussianBlur stdDeviation="5"/>
<feComposite operator="out" in2="hardAlpha"/>
<feColorMatrix values="0 0 0 0 0.178507 0 0 0 0 0.262099 0 0 0 0 0.441667 0 0 0 0.75 0" type="matrix"/>
<feBlend result="effect1_dropShadow_846_982" in2="BackgroundImageFix" mode="normal"/>
<feBlend result="shape" in2="effect1_dropShadow_846_982" in="SourceGraphic" mode="normal"/>
</filter>
<filter color-interpolation-filters="sRGB" filterUnits="userSpaceOnUse" height="293.719" width="293.719" y="30.2195" x="-2.09375" id="filter7_f_846_982">
<feFlood result="BackgroundImageFix" flood-opacity="0"/>
<feBlend result="shape" in2="BackgroundImageFix" in="SourceGraphic" mode="normal"/>
<feGaussianBlur result="effect1_foregroundBlur_846_982" stdDeviation="37.5"/>
</filter>
<filter color-interpolation-filters="sRGB" filterUnits="userSpaceOnUse" height="108.7" width="98.8428" y="83.8535" x="96.9307" id="filter8_dd_846_982">
<feFlood result="BackgroundImageFix" flood-opacity="0"/>
<feColorMatrix result="hardAlpha" values="0 0 0 0 0 0 0 0 0 0 0 0 0 0 0 0 0 0 127 0" type="matrix" in="SourceAlpha"/>
<feOffset/>
<feGaussianBlur stdDeviation="2.5"/>
<feComposite operator="out" in2="hardAlpha"/>
<feColorMatrix values="0 0 0 0 1 0 0 0 0 1 0 0 0 0 1 0 0 0 1 0" type="matrix"/>
<feBlend result="effect1_dropShadow_846_982" in2="BackgroundImageFix" mode="normal"/>
<feColorMatrix result="hardAlpha" values="0 0 0 0 0 0 0 0 0 0 0 0 0 0 0 0 0 0 127 0" type="matrix" in="SourceAlpha"/>
<feOffset/>
<feGaussianBlur stdDeviation="10"/>
<feComposite operator="out" in2="hardAlpha"/>
<feColorMatrix values="0 0 0 0 1 0 0 0 0 1 0 0 0 0 1 0 0 0 1 0" type="matrix"/>
<feBlend result="effect2_dropShadow_846_982" in2="effect1_dropShadow_846_982" mode="normal"/>
<feBlend result="shape" in2="effect2_dropShadow_846_982" in="SourceGraphic" mode="normal"/>
</filter>
<filter color-interpolation-filters="sRGB" filterUnits="userSpaceOnUse" height="80.7463" width="43.436" y="43.6736" x="130.78" id="filter9_dd_846_982">
<feFlood result="BackgroundImageFix" flood-opacity="0"/>
<feColorMatrix result="hardAlpha" values="0 0 0 0 0 0 0 0 0 0 0 0 0 0 0 0 0 0 127 0" type="matrix" in="SourceAlpha"/>
<feOffset/>
<feGaussianBlur stdDeviation="2.5"/>
<feComposite operator="out" in2="hardAlpha"/>
<feColorMatrix values="0 0 0 0 1 0 0 0 0 1 0 0 0 0 1 0 0 0 1 0" type="matrix"/>
<feBlend result="effect1_dropShadow_846_982" in2="BackgroundImageFix" mode="normal"/>
<feColorMatrix result="hardAlpha" values="0 0 0 0 0 0 0 0 0 0 0 0 0 0 0 0 0 0 127 0" type="matrix" in="SourceAlpha"/>
<feOffset/>
<feGaussianBlur stdDeviation="10"/>
<feComposite operator="out" in2="hardAlpha"/>
<feColorMatrix values="0 0 0 0 1 0 0 0 0 1 0 0 0 0 1 0 0 0 1 0" type="matrix"/>
<feBlend result="effect2_dropShadow_846_982" in2="effect1_dropShadow_846_982" mode="normal"/>
<feBlend result="shape" in2="effect2_dropShadow_846_982" in="SourceGraphic" mode="normal"/>
</filter>
<filter color-interpolation-filters="sRGB" filterUnits="userSpaceOnUse" height="50.3789" width="84.478" y="90.1748" x="155.209" id="filter10_dd_846_982">
<feFlood result="BackgroundImageFix" flood-opacity="0"/>
<feColorMatrix result="hardAlpha" values="0 0 0 0 0 0 0 0 0 0 0 0 0 0 0 0 0 0 127 0" type="matrix" in="SourceAlpha"/>
<feOffset/>
<feGaussianBlur stdDeviation="2.5"/>
<feComposite operator="out" in2="hardAlpha"/>
<feColorMatrix values="0 0 0 0 1 0 0 0 0 1 0 0 0 0 1 0 0 0 1 0" type="matrix"/>
<feBlend result="effect1_dropShadow_846_982" in2="BackgroundImageFix" mode="normal"/>
<feColorMatrix result="hardAlpha" values="0 0 0 0 0 0 0 0 0 0 0 0 0 0 0 0 0 0 127 0" type="matrix" in="SourceAlpha"/>
<feOffset/>
<feGaussianBlur stdDeviation="10"/>
<feComposite operator="out" in2="hardAlpha"/>
<feColorMatrix values="0 0 0 0 1 0 0 0 0 1 0 0 0 0 1 0 0 0 1 0" type="matrix"/>
<feBlend result="effect2_dropShadow_846_982" in2="effect1_dropShadow_846_982" mode="normal"/>
<feBlend result="shape" in2="effect2_dropShadow_846_982" in="SourceGraphic" mode="normal"/>
</filter>
<filter color-interpolation-filters="sRGB" filterUnits="userSpaceOnUse" height="63.1301" width="63.144" y="135.146" x="152.63" id="filter11_dd_846_982">
<feFlood result="BackgroundImageFix" flood-opacity="0"/>
<feColorMatrix result="hardAlpha" values="0 0 0 0 0 0 0 0 0 0 0 0 0 0 0 0 0 0 127 0" type="matrix" in="SourceAlpha"/>
<feOffset/>
<feGaussianBlur stdDeviation="2.5"/>
<feComposite operator="out" in2="hardAlpha"/>
<feColorMatrix values="0 0 0 0 1 0 0 0 0 1 0 0 0 0 1 0 0 0 1 0" type="matrix"/>
<feBlend result="effect1_dropShadow_846_982" in2="BackgroundImageFix" mode="normal"/>
<feColorMatrix result="hardAlpha" values="0 0 0 0 0 0 0 0 0 0 0 0 0 0 0 0 0 0 127 0" type="matrix" in="SourceAlpha"/>
<feOffset/>
<feGaussianBlur stdDeviation="10"/>
<feComposite operator="out" in2="hardAlpha"/>
<feColorMatrix values="0 0 0 0 1 0 0 0 0 1 0 0 0 0 1 0 0 0 1 0" type="matrix"/>
<feBlend result="effect2_dropShadow_846_982" in2="effect1_dropShadow_846_982" mode="normal"/>
<feBlend result="shape" in2="effect2_dropShadow_846_982" in="SourceGraphic" mode="normal"/>
</filter>
<filter color-interpolation-filters="sRGB" filterUnits="userSpaceOnUse" height="49.0645" width="63.8906" y="92.4263" x="76.1016" id="filter12_dd_846_982">
<feFlood result="BackgroundImageFix" flood-opacity="0"/>
<feColorMatrix result="hardAlpha" values="0 0 0 0 0 0 0 0 0 0 0 0 0 0 0 0 0 0 127 0" type="matrix" in="SourceAlpha"/>
<feOffset/>
<feGaussianBlur stdDeviation="2.5"/>
<feComposite operator="out" in2="hardAlpha"/>
<feColorMatrix values="0 0 0 0 1 0 0 0 0 1 0 0 0 0 1 0 0 0 1 0" type="matrix"/>
<feBlend result="effect1_dropShadow_846_982" in2="BackgroundImageFix" mode="normal"/>
<feColorMatrix result="hardAlpha" values="0 0 0 0 0 0 0 0 0 0 0 0 0 0 0 0 0 0 127 0" type="matrix" in="SourceAlpha"/>
<feOffset/>
<feGaussianBlur stdDeviation="10"/>
<feComposite operator="out" in2="hardAlpha"/>
<feColorMatrix values="0 0 0 0 1 0 0 0 0 1 0 0 0 0 1 0 0 0 1 0" type="matrix"/>
<feBlend result="effect2_dropShadow_846_982" in2="effect1_dropShadow_846_982" mode="normal"/>
<feBlend result="shape" in2="effect2_dropShadow_846_982" in="SourceGraphic" mode="normal"/>
</filter>
<filter color-interpolation-filters="sRGB" filterUnits="userSpaceOnUse" height="80.3083" width="43.6953" y="151.939" x="118.368" id="filter13_dd_846_982">
<feFlood result="BackgroundImageFix" flood-opacity="0"/>
<feColorMatrix result="hardAlpha" values="0 0 0 0 0 0 0 0 0 0 0 0 0 0 0 0 0 0 127 0" type="matrix" in="SourceAlpha"/>
<feOffset/>
<feGaussianBlur stdDeviation="2.5"/>
<feComposite operator="out" in2="hardAlpha"/>
<feColorMatrix values="0 0 0 0 1 0 0 0 0 1 0 0 0 0 1 0 0 0 1 0" type="matrix"/>
<feBlend result="effect1_dropShadow_846_982" in2="BackgroundImageFix" mode="normal"/>
<feColorMatrix result="hardAlpha" values="0 0 0 0 0 0 0 0 0 0 0 0 0 0 0 0 0 0 127 0" type="matrix" in="SourceAlpha"/>
<feOffset/>
<feGaussianBlur stdDeviation="10"/>
<feComposite operator="out" in2="hardAlpha"/>
<feColorMatrix values="0 0 0 0 1 0 0 0 0 1 0 0 0 0 1 0 0 0 1 0" type="matrix"/>
<feBlend result="effect2_dropShadow_846_982" in2="effect1_dropShadow_846_982" mode="normal"/>
<feBlend result="shape" in2="effect2_dropShadow_846_982" in="SourceGraphic" mode="normal"/>
</filter>
<filter color-interpolation-filters="sRGB" filterUnits="userSpaceOnUse" height="56.1099" width="71.7524" y="135.854" x="65.8408" id="filter14_dd_846_982">
<feFlood result="BackgroundImageFix" flood-opacity="0"/>
<feColorMatrix result="hardAlpha" values="0 0 0 0 0 0 0 0 0 0 0 0 0 0 0 0 0 0 127 0" type="matrix" in="SourceAlpha"/>
<feOffset/>
<feGaussianBlur stdDeviation="2.5"/>
<feComposite operator="out" in2="hardAlpha"/>
<feColorMatrix values="0 0 0 0 1 0 0 0 0 1 0 0 0 0 1 0 0 0 1 0" type="matrix"/>
<feBlend result="effect1_dropShadow_846_982" in2="BackgroundImageFix" mode="normal"/>
<feColorMatrix result="hardAlpha" values="0 0 0 0 0 0 0 0 0 0 0 0 0 0 0 0 0 0 127 0" type="matrix" in="SourceAlpha"/>
<feOffset/>
<feGaussianBlur stdDeviation="10"/>
<feComposite operator="out" in2="hardAlpha"/>
<feColorMatrix values="0 0 0 0 1 0 0 0 0 1 0 0 0 0 1 0 0 0 1 0" type="matrix"/>
<feBlend result="effect2_dropShadow_846_982" in2="effect1_dropShadow_846_982" mode="normal"/>
<feBlend result="shape" in2="effect2_dropShadow_846_982" in="SourceGraphic" mode="normal"/>
</filter>
<linearGradient gradientUnits="userSpaceOnUse" y2="51.8832" x2="110.602" y1="217.799" x1="141.173" id="paint0_linear_846_982">
<stop stop-color="#6AA0CD" offset="0.15"/>
<stop stop-color="#8DC4F0" offset="0.85"/>
</linearGradient>
<linearGradient gradientUnits="userSpaceOnUse" y2="51.8832" x2="110.602" y1="217.799" x1="141.173" id="paint1_linear_846_982">
<stop stop-color="#6AA0CD" offset="0.15"/>
<stop stop-color="#93CFF2" offset="0.85"/>
</linearGradient>
<linearGradient gradientUnits="userSpaceOnUse" y2="205.29" x2="96.9964" y1="79.5122" x1="192.537" id="paint2_linear_846_982">
<stop stop-color="white"/>
<stop stop-color="#A3CBEE" offset="0.82"/>
</linearGradient>
<linearGradient gradientUnits="userSpaceOnUse" y2="51.883" x2="110.602" y1="217.799" x1="141.173" id="paint3_linear_846_982">
<stop stop-color="#6AA0CD" offset="0.15"/>
<stop stop-color="#8DC4F0" offset="0.85"/>
</linearGradient>
<linearGradient gradientUnits="userSpaceOnUse" y2="248.938" x2="144.766" y1="105.219" x1="144.766" id="paint4_linear_846_982">
<stop stop-color="#D7ECFF" offset="0.226667"/>
<stop stop-color="#93CFF2" offset="1"/>
</linearGradient>
</defs>
</svg>