<svg xmlns="http://www.w3.org/2000/svg" width="380" height="92" fill="none" class="css-1hsn8wk"><path fill="#ffffff" d="M51.07 4.922h37.664c6.097 0 11.04 5.107 11.04 11.408v44.287c0 6.3-4.943 11.408-11.04 11.408H34.835L51.07 4.922Z"/><path fill="#ffffff" d="M41.287 17.635H10.946C4.9 17.635 0 22.742 0 29.042V73.33c0 6.3 4.9 11.408 10.945 11.408H48.29l1.497-6.243H26.688l14.599-60.86ZM145.001 71.998l-16.605-54.344h9.381l11.753 41.513 12.723-41.513h8.842l12.723 41.513 11.645-41.513h9.597l-16.713 54.344h-8.95l-12.723-41.297-12.724 41.297h-8.949Zm101.425-35.366c0-7.44-5.284-12.185-13.263-12.185-7.44 0-12.723 4.421-13.478 11.753l-8.518-1.617c1.617-10.782 10.567-17.791 21.996-17.791 13.155 0 22.32 7.763 22.32 20.379v34.827h-9.057v-9.273c-3.127 6.254-10.244 10.136-18.115 10.136-10.89 0-18.33-6.685-18.33-16.066 0-10.46 8.518-16.174 25.878-17.899l10.567-1.186v-1.078Zm-27.28 20.055c0 5.068 4.313 8.626 10.567 8.626 10.567 0 16.713-7.009 16.713-17.899v-2.588l-10.567 1.186c-10.998 1.187-16.713 4.96-16.713 10.675Zm98.035-20.594-9.165 1.725c-.432-8.087-5.499-12.724-13.694-12.724-10.028 0-16.497 9.058-16.497 23.614v23.29h-9.165V17.654h9.165V28.33c3.989-7.763 10.674-11.537 18.653-11.537 12.077 0 20.272 7.548 20.703 19.3Zm9.769 55.53V17.653h9.165v7.872c2.912-4.96 10.028-8.734 17.899-8.734 16.713 0 25.986 12.076 25.986 28.034 0 15.958-9.488 28.035-26.201 28.035-6.901 0-14.018-3.45-17.684-8.41v27.171h-9.165Zm25.986-26.957c10.783 0 17.791-7.871 17.791-19.84 0-11.968-7.008-19.84-17.791-19.84-10.567 0-17.575 7.872-17.575 19.84 0 11.969 7.008 19.84 17.575 19.84Z"/></svg>